<svg width="174" height="39" viewBox="0 0 174 39" fill="none" xmlns="http://www.w3.org/2000/svg">
<path d="M16.0428 26.8064C13.8664 25.998 11.6279 25.8737 9.5759 26.4333C8.14571 26.8064 6.77772 27.5526 5.53408 28.4853L4.66352 29.2315L4.41479 29.4802L4.97443 29.9777C5.03661 29.9777 5.03662 30.0399 5.0988 30.102C5.22316 30.2264 5.34753 30.2886 5.53408 30.4129L5.90715 30.6617L6.28025 30.3508C6.34243 30.2886 6.46679 30.1642 6.59116 30.102C7.71043 29.1693 8.95406 28.5475 10.2599 28.2366C11.9388 27.8013 13.7421 27.8635 15.5453 28.5475C17.0377 29.1071 20.0846 29.7911 23.7533 28.2366L23.8777 28.1744L24.0643 27.9879C24.0643 27.9257 24.1264 27.9257 24.1886 27.8635C24.4995 27.4904 24.8104 27.1173 25.0592 26.682L26.3028 24.7544L24.313 25.8737C21.3904 27.4904 18.7166 27.8013 16.0428 26.8064Z" fill="#55B02E"/>
<path d="M7.52389 20.0906C9.2028 19.6553 11.0061 19.7175 12.8093 20.4015C14.7992 21.1477 19.8981 22.2048 25.6188 17.0437L26.5515 16.111L26.6137 16.0488L26.8624 15.8001L26.7381 15.4891C26.6759 15.2404 26.5515 14.9295 26.4272 14.6186L26.1162 13.748L25.4944 14.3699C25.4322 14.4942 25.3079 14.5564 25.1835 14.6808C22.4475 17.479 18.2192 20.3393 13.369 18.5982C11.1926 17.7899 8.95407 17.6655 6.90207 18.2251C4.91225 18.7848 3.17115 19.8419 1.55443 21.3342V21.2721L0.6217 22.267C0.6217 22.3291 0.55953 22.3292 0.497348 22.3913L0.310791 22.5779L0.372977 22.8266C0.435158 23.1375 0.559518 23.4484 0.6217 23.7593L0.994795 24.7542L1.61661 23.9459C1.67879 23.8215 1.80315 23.7593 1.86534 23.635C3.17115 22.4535 4.97443 20.7746 7.52389 20.0906Z" fill="#55B02E"/>
<path d="M1.49238 18.9715C2.92256 17.4792 4.53928 16.5464 6.28037 16.049C7.95928 15.6137 9.76255 15.6759 11.5658 16.3599C17.1622 18.4119 22.0124 15.0541 24.1266 13.2508L24.9349 12.4424L25.2458 12.1937L24.9971 11.8206C24.8106 11.6341 24.6862 11.3854 24.4997 11.1366L24.1266 10.6392L23.6913 11.0744C23.6291 11.1366 23.5047 11.261 23.4426 11.3232C20.8309 13.8104 16.7891 16.3599 12.1876 14.6188C10.0113 13.8104 7.77273 13.6861 5.72074 14.2457C4.41492 14.6188 3.17128 15.2406 1.92764 16.049L0.621818 17.1061C0.497455 17.2304 0.435273 17.2926 0.310909 17.417L0.186557 17.5413V17.7279C0.124375 18.1632 0.124367 18.5984 0.0621856 18.9715L0 20.5261L1.0571 19.4068C1.18146 19.2824 1.30583 19.0959 1.49238 18.9715Z" fill="#55B02E"/>
<path d="M17.8461 31.0349L17.7217 31.408L17.8461 31.0349C17.6595 30.9727 17.5352 30.9105 17.3486 30.8483C15.1723 30.04 12.9337 29.9156 10.8817 30.4753C10.4464 30.5996 10.0112 30.724 9.5759 30.9105L8.08352 31.5945L7.71045 31.7811L8.95409 32.2163C9.32718 32.3407 9.70026 32.4651 10.0734 32.5894L10.2599 32.6516L10.4464 32.5894C10.633 32.5273 10.8195 32.4029 11.0061 32.4029C11.1304 32.4029 11.2548 32.3407 11.3792 32.2785C12.8715 31.9054 14.4883 31.9054 16.2293 32.4651C16.4159 32.5272 16.5403 32.5894 16.7268 32.6516L17.0377 32.776L17.2243 32.7138C17.6595 32.5894 18.157 32.4651 18.5301 32.2785L20.2712 31.6567L18.4679 31.2214C18.2814 31.1592 18.0326 31.0971 17.8461 31.0349Z" fill="#55B02E"/>
<path d="M27.36 18.1631L26.4273 19.0958C26.3029 19.2202 26.1786 19.3445 26.0542 19.4689C23.5047 21.894 19.4007 24.5056 14.7993 22.7645C12.6229 21.9562 10.3844 21.8318 8.33237 22.3915C6.40473 22.9511 4.66363 23.946 3.10908 25.4384L2.30073 26.3089L2.052 26.6198L2.30073 26.9929C2.48727 27.2416 2.61164 27.4282 2.73601 27.6769L3.10908 28.2365L3.54436 27.6769C3.60654 27.6147 3.7309 27.4904 3.79309 27.4282C5.28545 25.8114 6.90218 24.8165 8.76763 24.3191C10.4465 23.8838 12.2498 23.946 14.0531 24.63C15.6076 25.1896 17.2244 25.3762 18.8411 25.1896C21.7015 24.8787 24.5618 23.262 26.676 21.4587C26.8004 21.3344 26.9247 21.2722 27.0491 21.1478L27.2356 20.9613V20.7747C27.2356 20.4016 27.2978 19.9664 27.2978 19.5933L27.36 18.1631Z" fill="#55B02E"/>
<path d="M3.73094 12.4423L3.5444 12.0692L3.73094 12.4423C4.10403 12.2557 4.53932 12.1313 4.91241 12.007C6.59132 11.5717 8.39459 11.6339 10.1979 12.3179C11.3793 12.7532 12.5608 12.9397 13.8666 12.9397C16.4782 12.9397 19.0899 12.007 21.5149 10.2037L22.4477 9.45752L22.7586 9.20879L22.1989 8.77351C22.0124 8.58697 21.7637 8.40043 21.5149 8.27607L21.1418 8.02734L20.8309 8.27607C20.7066 8.33825 20.6444 8.46261 20.52 8.52479C17.2244 11.0121 13.9288 11.6961 10.8197 10.5146C8.58114 9.70625 6.34258 9.51971 4.10403 10.2037C3.91749 10.2659 3.73094 10.3281 3.48222 10.3902L3.35786 10.4524L3.17131 10.639C3.17131 10.7012 3.10914 10.7012 3.04695 10.7633C2.79823 11.1364 2.48731 11.4473 2.23858 11.8204L1.05713 13.6237L2.98477 12.6288C3.29568 12.6288 3.54439 12.5044 3.73094 12.4423Z" fill="#55B02E"/>
<path d="M8.82991 8.21393L9.01645 8.27611C9.82482 8.58702 11.0685 8.89793 12.623 8.89793C14.2397 8.89793 15.7943 8.52484 17.3488 7.90302L19.2765 6.97029L17.9706 6.53503C17.5976 6.41067 17.2245 6.2863 16.7892 6.22412H16.6026L16.4161 6.28629C16.2296 6.34847 16.043 6.47285 15.8565 6.53503C13.991 7.21903 12.1255 7.34339 10.3223 6.84594C10.1357 6.78376 9.94919 6.72156 9.76264 6.65938L9.5761 6.5972L9.38955 6.65938C9.01646 6.78375 8.64337 6.90812 8.27028 7.09466L6.84009 7.71648L8.33247 8.15174C8.45683 8.08956 8.64337 8.15175 8.82991 8.21393Z" fill="#55B02E"/>
<path d="M40.4759 30V18.492H37.7599V15.86H41.4559L40.4759 16.756V14.6C40.4759 12.8453 40.9145 11.52 41.7919 10.624C42.6879 9.728 43.9852 9.28 45.6839 9.28C46.0945 9.28 46.5239 9.308 46.9719 9.364C47.4385 9.42 47.8399 9.52267 48.1759 9.672V12.416C47.9332 12.3227 47.6439 12.248 47.3079 12.192C46.9719 12.136 46.6452 12.108 46.3279 12.108C45.5999 12.108 45.0212 12.3227 44.5919 12.752C44.1625 13.1627 43.9479 13.8347 43.9479 14.768V16.476L43.4439 15.86H53.2719V30H49.7719V18.492H43.9759V30H40.4759ZM49.5759 13.2V9.784H53.4679V13.2H49.5759ZM57.0786 30V19.388C57.0786 18.8093 57.0599 18.2213 57.0226 17.624C56.9852 17.0267 56.9292 16.4387 56.8546 15.86H60.2426L60.5226 18.66H60.1866C60.6346 17.6707 61.2972 16.9147 62.1746 16.392C63.0519 15.8507 64.0692 15.58 65.2266 15.58C66.8879 15.58 68.1386 16.0467 68.9786 16.98C69.8186 17.9133 70.2386 19.3693 70.2386 21.348V30H66.7386V21.516C66.7386 20.3773 66.5146 19.5653 66.0666 19.08C65.6372 18.576 64.9839 18.324 64.1066 18.324C63.0239 18.324 62.1652 18.66 61.5306 19.332C60.8959 20.004 60.5786 20.9 60.5786 22.02V30H57.0786ZM79.4097 30.28C78.1777 30.28 77.095 29.9907 76.1617 29.412C75.2283 28.8147 74.5003 27.9653 73.9777 26.864C73.455 25.7627 73.1937 24.4467 73.1937 22.916C73.1937 21.3853 73.455 20.0787 73.9777 18.996C74.5003 17.8947 75.2283 17.0547 76.1617 16.476C77.095 15.8787 78.1777 15.58 79.4097 15.58C80.6043 15.58 81.6497 15.8787 82.5457 16.476C83.4603 17.0547 84.067 17.8387 84.3657 18.828H84.0577L84.3657 15.86H87.7257C87.6697 16.4387 87.6137 17.0267 87.5577 17.624C87.5203 18.2213 87.5017 18.8093 87.5017 19.388V30H84.0297L84.0017 27.088H84.3377C84.039 28.0587 83.4323 28.8333 82.5177 29.412C81.603 29.9907 80.567 30.28 79.4097 30.28ZM80.3897 27.592C81.491 27.592 82.3777 27.2093 83.0497 26.444C83.7217 25.66 84.0577 24.484 84.0577 22.916C84.0577 21.348 83.7217 20.1813 83.0497 19.416C82.3777 18.6507 81.491 18.268 80.3897 18.268C79.2883 18.268 78.4017 18.6507 77.7297 19.416C77.0577 20.1813 76.7217 21.348 76.7217 22.916C76.7217 24.484 77.0483 25.66 77.7017 26.444C78.3737 27.2093 79.2697 27.592 80.3897 27.592ZM91.3129 30V19.388C91.3129 18.8093 91.2943 18.2213 91.2569 17.624C91.2196 17.0267 91.1636 16.4387 91.0889 15.86H94.4769L94.7569 18.66H94.4209C94.8689 17.6707 95.5316 16.9147 96.4089 16.392C97.2863 15.8507 98.3036 15.58 99.4609 15.58C101.122 15.58 102.373 16.0467 103.213 16.98C104.053 17.9133 104.473 19.3693 104.473 21.348V30H100.973V21.516C100.973 20.3773 100.749 19.5653 100.301 19.08C99.8716 18.576 99.2183 18.324 98.3409 18.324C97.2583 18.324 96.3996 18.66 95.7649 19.332C95.1303 20.004 94.8129 20.9 94.8129 22.02V30H91.3129ZM114.68 30.28C113.224 30.28 111.945 29.9813 110.844 29.384C109.761 28.7867 108.921 27.9373 108.324 26.836C107.727 25.716 107.428 24.3907 107.428 22.86C107.428 21.3293 107.727 20.0227 108.324 18.94C108.94 17.8573 109.789 17.0267 110.872 16.448C111.955 15.8693 113.224 15.58 114.68 15.58C115.613 15.58 116.519 15.7293 117.396 16.028C118.292 16.308 119.02 16.7187 119.58 17.26L118.516 19.696C118.012 19.2293 117.443 18.884 116.808 18.66C116.192 18.4173 115.585 18.296 114.988 18.296C113.737 18.296 112.757 18.688 112.048 19.472C111.357 20.256 111.012 21.3947 111.012 22.888C111.012 24.3813 111.357 25.5293 112.048 26.332C112.757 27.1347 113.737 27.536 114.988 27.536C115.567 27.536 116.164 27.424 116.78 27.2C117.415 26.976 117.993 26.6307 118.516 26.164L119.58 28.572C119.001 29.1133 118.264 29.5333 117.368 29.832C116.491 30.1307 115.595 30.28 114.68 30.28ZM128.852 30.28C126.481 30.28 124.624 29.6267 123.28 28.32C121.936 27.0133 121.264 25.2213 121.264 22.944C121.264 21.4693 121.553 20.1813 122.132 19.08C122.711 17.9787 123.513 17.12 124.54 16.504C125.585 15.888 126.799 15.58 128.18 15.58C129.543 15.58 130.681 15.8693 131.596 16.448C132.511 17.0267 133.201 17.8387 133.668 18.884C134.153 19.9293 134.396 21.152 134.396 22.552V23.476H124.092V21.628H131.904L131.428 22.02C131.428 20.7133 131.148 19.7147 130.588 19.024C130.047 18.3333 129.253 17.988 128.208 17.988C127.051 17.988 126.155 18.3987 125.52 19.22C124.904 20.0413 124.596 21.1893 124.596 22.664V23.028C124.596 24.5587 124.969 25.7067 125.716 26.472C126.481 27.2187 127.555 27.592 128.936 27.592C129.739 27.592 130.485 27.4893 131.176 27.284C131.885 27.06 132.557 26.7053 133.192 26.22L134.228 28.572C133.556 29.1133 132.753 29.5333 131.82 29.832C130.887 30.1307 129.897 30.28 128.852 30.28ZM136.968 30V26.108H140.888V30H136.968ZM149.683 30.28C148.451 30.28 147.368 29.9907 146.435 29.412C145.502 28.8147 144.774 27.9653 144.251 26.864C143.728 25.7627 143.467 24.4467 143.467 22.916C143.467 21.3853 143.728 20.0787 144.251 18.996C144.774 17.8947 145.502 17.0547 146.435 16.476C147.368 15.8787 148.451 15.58 149.683 15.58C150.878 15.58 151.923 15.8787 152.819 16.476C153.734 17.0547 154.34 17.8387 154.639 18.828H154.331L154.639 15.86H157.999C157.943 16.4387 157.887 17.0267 157.831 17.624C157.794 18.2213 157.775 18.8093 157.775 19.388V30H154.303L154.275 27.088H154.611C154.312 28.0587 153.706 28.8333 152.791 29.412C151.876 29.9907 150.84 30.28 149.683 30.28ZM150.663 27.592C151.764 27.592 152.651 27.2093 153.323 26.444C153.995 25.66 154.331 24.484 154.331 22.916C154.331 21.348 153.995 20.1813 153.323 19.416C152.651 18.6507 151.764 18.268 150.663 18.268C149.562 18.268 148.675 18.6507 148.003 19.416C147.331 20.1813 146.995 21.348 146.995 22.916C146.995 24.484 147.322 25.66 147.975 26.444C148.647 27.2093 149.543 27.592 150.663 27.592ZM161.586 30V15.86H165.086V30H161.586ZM161.39 13.2V9.784H165.282V13.2H161.39Z" fill="white"/>
</svg>
