<svg width="18" height="18" viewBox="0 0 18 18" fill="none" xmlns="http://www.w3.org/2000/svg">
<path d="M3.75008 5.41667L2.35711 6.80964C1.05536 8.11139 1.05536 10.2219 2.35711 11.5237L3.75008 12.9167M3.75008 5.41667L6.80973 2.35702C8.11147 1.05527 10.222 1.05527 11.5238 2.35702L14.5834 5.41667M3.75008 5.41667L5.5203 5.41667C5.72216 5.41667 5.91715 5.48993 6.06906 5.62285L8.61799 7.85317C8.93218 8.12809 9.40131 8.12809 9.7155 7.85317L12.2644 5.62285C12.4163 5.48993 12.6113 5.41667 12.8132 5.41667L14.5834 5.41667M14.5834 5.41667L15.9764 6.80964C17.2781 8.11139 17.2781 10.2219 15.9764 11.5237L14.5834 12.9167M3.75008 12.9167L6.80973 15.9763C8.11147 17.2781 10.222 17.2781 11.5238 15.9763L14.5834 12.9167M3.75008 12.9167L5.59442 12.9167C5.7506 12.9167 5.90364 12.8728 6.03608 12.79L8.72508 11.1094C8.99531 10.9405 9.33819 10.9405 9.60841 11.1094L12.2974 12.79C12.4299 12.8728 12.5829 12.9167 12.7391 12.9167H14.5834" stroke="#B8B8B8" stroke-width="1.6"/>
</svg>
